<?xml version="1.0" standalone="no"?>
<!DOCTYPE svg PUBLIC "-//W3C//DTD SVG 20010904//EN"
 "http://www.w3.org/TR/2001/REC-SVG-20010904/DTD/svg10.dtd">
<svg version="1.0" xmlns="http://www.w3.org/2000/svg"
 width="600.000000pt" height="696.000000pt" viewBox="0 0 600.000000 696.000000"
 preserveAspectRatio="xMidYMid meet">
<g transform="translate(0.000000,696.000000) scale(0.100000,-0.100000)"
fill="#000000" stroke="none">
<path d="M1535 6954 c-11 -3 -46 -12 -78 -20 -86 -21 -198 -78 -271 -138 -130
-106 -210 -224 -260 -381 -23 -70 -26 -98 -26 -221 0 -120 4 -152 24 -221 65
-217 207 -383 411 -479 378 -180 844 -18 1023 356 58 123 72 187 72 344 0 130
-2 149 -29 227 -38 112 -69 171 -134 252 -99 123 -248 222 -395 263 -56 16
-295 28 -337 18z"/>
<path d="M4335 6043 c-334 -40 -634 -180 -868 -403 -88 -83 -188 -202 -241
-288 -76 -121 -132 -261 -281 -702 -86 -256 -266 -789 -400 -1185 -498 -1476
-454 -1354 -526 -1451 -82 -111 -207 -194 -354 -235 -106 -29 -255 -23 -361
14 -272 95 -447 356 -431 645 5 84 15 120 106 390 102 305 483 1430 519 1537
11 33 19 61 18 62 -11 12 -801 272 -806 266 -4 -5 -64 -177 -133 -383 -69
-206 -210 -627 -315 -935 -232 -687 -243 -731 -243 -977 -1 -146 12 -242 48
-383 67 -256 194 -477 388 -671 125 -126 227 -200 378 -278 328 -168 697 -207
1063 -112 285 74 579 265 765 497 156 195 203 290 345 710 153 454 547 1621
769 2278 141 418 165 469 273 573 125 120 277 181 447 180 177 -2 314 -60 442
-187 66 -66 90 -99 123 -166 54 -113 74 -209 66 -324 -5 -85 -21 -136 -262
-850 -141 -418 -285 -845 -320 -949 -35 -104 -63 -190 -61 -191 1 -1 183 -63
404 -138 l401 -136 172 507 c437 1293 479 1423 500 1545 59 348 -8 717 -184
1012 -277 464 -767 741 -1299 734 -62 -1 -125 -4 -142 -6z"/>
<path d="M4158 1520 c-222 -51 -419 -207 -516 -410 -58 -123 -72 -187 -72
-344 0 -155 18 -234 79 -354 92 -179 285 -335 484 -390 87 -24 318 -24 405 0
254 71 454 265 536 523 23 70 26 98 26 222 0 126 -3 152 -26 225 -55 173 -141
296 -280 399 -177 130 -419 180 -636 129z"/>
</g>
</svg>
